<?xml version="1.0" standalone="no"?><!DOCTYPE svg PUBLIC "-//W3C//DTD SVG 1.1//EN" "http://www.w3.org/Graphics/SVG/1.1/DTD/svg11.dtd"><svg t="1558059158663" class="icon" style="" viewBox="0 0 1024 1024" version="1.1" xmlns="http://www.w3.org/2000/svg" p-id="2744" xmlns:xlink="http://www.w3.org/1999/xlink" width="200" height="200"><defs><style type="text/css"></style></defs><path d="M887.5 257H832V114.5c0-27.294-22.205-49.5-49.5-49.5h-540c-27.294 0-49.5 22.206-49.5 49.5V257h-57.5C96.075 257 64 289.075 64 328.5v400c0 39.425 32.075 71.5 71.5 71.5H192v110.5c0 27.295 22.206 49.5 49.5 49.5h540c27.295 0 49.5-22.205 49.5-49.5V800h56.5c39.425 0 71.5-32.075 71.5-71.5v-400c0-39.425-32.075-71.5-71.5-71.5zM256 128h513v129H256V128z m512 769H255V640h513v257z m128-168.5c0 4.687-3.813 8.5-8.5 8.5H831V626.5c0-27.295-22.205-49.5-49.5-49.5h-540c-27.294 0-49.5 22.205-49.5 49.5V737h-56.5c-4.687 0-8.5-3.813-8.5-8.5v-400c0-4.687 3.813-8.5 8.5-8.5h752c4.687 0 8.5 3.813 8.5 8.5v400z" p-id="2745" fill="#515151"></path><path d="M237 385h-28c-9.941 0-18 8.059-18 18v28c0 9.941 8.059 18 18 18h28c9.941 0 18-8.059 18-18v-28c0-9.941-8.059-18-18-18zM366 385h-28c-9.941 0-18 8.059-18 18v28c0 9.941 8.059 18 18 18h28c9.941 0 18-8.059 18-18v-28c0-9.941-8.059-18-18-18z" p-id="2746" fill="#515151"></path></svg>