<?xml version="1.0" standalone="no"?><!DOCTYPE svg PUBLIC "-//W3C//DTD SVG 1.1//EN" "http://www.w3.org/Graphics/SVG/1.1/DTD/svg11.dtd"><svg t="1558339161847" class="icon" style="" viewBox="0 0 1035 1024" version="1.1" xmlns="http://www.w3.org/2000/svg" p-id="3051" xmlns:xlink="http://www.w3.org/1999/xlink" width="48.515625" height="48"><defs><style type="text/css"></style></defs><path d="M914.335 779.159c24.451-67.716 24.11-138.864 27.036-211.283 0.763-27.246 7.966-44.197 12.034-62.97 5.975-37.332-3.602-58.902 11.78-93.184 4.536-32.205 15.597-50.765 43.14-79.876-60.257 10.636-103.48 63.69-163.907 94.2-110.936 76.87-224.42 103.312-275.694 237.177-36.483 95.171 0 173.23 62.166 214.671 23.772-107.165 36.314-148.523 128.437-228.656-56.824 71.105-80.302 135.006-98.48 244.928 86.7 37.544 202.469 12.287 253.488-115.007m-812.207-53.814c56.613 44.322 124.327 66.314 192.213 91.954 25.552 9.237 39.41 21.397 55.936 31.103 33.647 17.245 57.121 15.044 84.791 40.383 29.198 14.406 43.393 30.637 62.421 66.02 8.729-60.556-28.095-118.269-38.138-185.138-38.095-129.54-27.629-245.48-138.82-336.248-78.818-64.41-164.416-54.156-223.276-8.221 94.369 56.191 129.711 81.106 176.917 193.697-49.664-76.317-103.1-118.693-201.705-170.306-62.717 70.43-75.05 188.36 29.66 276.756M550.247 59.67c-69.199 19.832-126.744 61.784-187.214 101.87-22.415 15.34-40.384 19.408-57.884 27.165-33.688 17.075-45.722 37.416-82.505 44.96-28.814 15.212-50.173 17.203-90.004 11.863 43.9 42.587 112.21 46.613 172.34 77.589 127.337 44.96 215.181 121.407 353.833 84.538 98.439-26.187 140.263-101.488 137.422-176.195-100.768 43.56-141.617 57.714-260.607 29.917 90.98 4.408 156.576-13.984 256.244-63.69C771.487 105.562 683.22 26.405 550.246 59.67" p-id="3052" fill="#707070"></path></svg>