<?xml version="1.0" standalone="no"?><!DOCTYPE svg PUBLIC "-//W3C//DTD SVG 1.1//EN" "http://www.w3.org/Graphics/SVG/1.1/DTD/svg11.dtd"><svg t="1557809627775" class="icon" style="" viewBox="0 0 1024 1024" version="1.1" xmlns="http://www.w3.org/2000/svg" p-id="1151" xmlns:xlink="http://www.w3.org/1999/xlink" width="16" height="16"><defs><style type="text/css"></style></defs><path d="M62.296463 576.23471l64.234709-64.23471 85.676565 85.646279-42.853425 42.853425a121.140424 121.140424 0 0 0 0 171.292559l42.853425 42.853425a121.140424 121.140424 0 0 0 171.292559 0l214.145983-214.145984a121.140424 121.140424 0 0 0 0-171.322844l-42.823139-42.823139a120.080445 120.080445 0 0 0-24.440081-18.413345l88.705075-88.67479 85.64628 85.64628a211.995741 211.995741 0 0 1 0 299.822548l-256.969124 256.969123a211.995741 211.995741 0 0 1-299.822548 0l-85.646279-85.646279a211.995741 211.995741 0 0 1 0-299.822548z" fill="#E13455" p-id="1152"></path><path d="M961.703537 447.76529l-64.234709 64.23471-85.676565-85.646279 42.853425-42.853425a121.140424 121.140424 0 0 0 0-171.292559l-42.853425-42.853425a121.140424 121.140424 0 0 0-171.292559 0l-214.145983 214.145984a121.140424 121.140424 0 0 0 0 171.322844l42.823139 42.823139a120.080445 120.080445 0 0 0 24.440081 18.413345L404.911866 704.734414l-85.64628-85.64628a211.995741 211.995741 0 0 1 0-299.822548l256.969124-256.969123a211.995741 211.995741 0 0 1 299.822548 0l85.646279 85.646279a211.995741 211.995741 0 0 1 0 299.822548z" fill="#F3ADBA" p-id="1153"></path></svg>