<?xml version="1.0" standalone="no"?><!DOCTYPE svg PUBLIC "-//W3C//DTD SVG 1.1//EN" "http://www.w3.org/Graphics/SVG/1.1/DTD/svg11.dtd"><svg t="1557990508344" class="icon" style="" viewBox="0 0 1024 1024" version="1.1" xmlns="http://www.w3.org/2000/svg" p-id="2512" xmlns:xlink="http://www.w3.org/1999/xlink" width="200" height="200"><defs><style type="text/css"></style></defs><path d="M475.4432 1008.64C437.2736 969.7536 102.4 622.336 102.4 409.6a409.6 409.6 0 0 1 819.2 0c0 212.736-334.8736 560.1536-373.0432 599.04a51.2 51.2 0 0 1-73.1136 0zM512 102.4A307.5328 307.5328 0 0 0 204.8 409.6c0 129.2544 196.5568 368.9472 307.2 488.832C622.6176 778.496 819.2 538.7008 819.2 409.6A307.5328 307.5328 0 0 0 512 102.4z m-102.4 307.2a102.4 102.4 0 1 1 102.4 102.4 102.4 102.4 0 0 1-102.4-102.4z" fill="#54626C" p-id="2513"></path></svg>