<?xml version="1.0" standalone="no"?><!DOCTYPE svg PUBLIC "-//W3C//DTD SVG 1.1//EN" "http://www.w3.org/Graphics/SVG/1.1/DTD/svg11.dtd"><svg t="1557990423260" class="icon" style="" viewBox="0 0 1280 1024" version="1.1" xmlns="http://www.w3.org/2000/svg" p-id="2264" xmlns:xlink="http://www.w3.org/1999/xlink" width="250" height="200"><defs><style type="text/css"></style></defs><path d="M1216 1024H64a64 64 0 0 1-64-64V64a64 64 0 0 1 64-64h1152a64 64 0 0 1 64 64v896a64 64 0 0 1-64 64zM128 896h1024V128H128v768z m512-256a64 64 0 0 1-39.968-14.016l-320-256a64 64 0 1 1 80-99.936l280.032 224 280.032-224a64 64 0 1 1 80 99.936l-320 256A64 64 0 0 1 640 640z" fill="#54626C" p-id="2265"></path></svg>