<?xml version="1.0" standalone="no"?><!DOCTYPE svg PUBLIC "-//W3C//DTD SVG 1.1//EN" "http://www.w3.org/Graphics/SVG/1.1/DTD/svg11.dtd"><svg t="1557990455784" class="icon" style="" viewBox="0 0 1024 1024" version="1.1" xmlns="http://www.w3.org/2000/svg" p-id="2388" xmlns:xlink="http://www.w3.org/1999/xlink" width="200" height="200"><defs><style type="text/css"></style></defs><path d="M512 512a204.8 204.8 0 0 1-204.8-204.8V204.8a204.8 204.8 0 0 1 204.8-204.8 204.8 204.8 0 0 1 204.8 204.8v102.4a204.8 204.8 0 0 1-204.8 204.8z m409.6 512H102.4a51.2 51.2 0 0 1-51.2-51.2v-51.2a307.5328 307.5328 0 0 1 307.2-307.2h307.2a307.5328 307.5328 0 0 1 307.2 307.2v51.2a51.2 51.2 0 0 1-51.2 51.2zM153.6 921.6h716.8a205.0304 205.0304 0 0 0-204.8-204.8H358.4a205.0304 205.0304 0 0 0-204.8 204.8z" fill="#54626C" p-id="2389"></path></svg>